<svg xmlns="http://www.w3.org/2000/svg" viewBox="0 0 180 120">
  <g>
    <path d="M70.9,26.9C24.1,53.8-5.2,90.6,5.4,108.9s57,11.2,103.7-15.8,76.1-63.7,65.5-82S117.6-.1,70.9,26.9ZM65.8,80.1a19.8,19.8,0,0,1,1.5,4.5,12.7,12.7,0,0,1,.5,4.2,8.2,8.2,0,0,1-.8,3.5,5.9,5.9,0,0,1-2.3,2.4,6.2,6.2,0,0,1-5.5.2,14.9,14.9,0,0,1-5.6-4,36,36,0,0,1-5-7A38.3,38.3,0,0,1,45,76.1a16.9,16.9,0,0,1-.7-6.9,6,6,0,0,1,3-4.6,5.4,5.4,0,0,1,3.3-.8,7.4,7.4,0,0,1,3.4,1,14.4,14.4,0,0,1,3.3,2.5,27.4,27.4,0,0,1,3.2,3.6,47.8,47.8,0,0,1,2.9,4.4A26.9,26.9,0,0,1,65.8,80.1Zm10.3-9A2.1,2.1,0,0,1,73,72.9,4.6,4.6,0,0,1,71,71a5.4,5.4,0,0,1-.7-2.7,2.1,2.1,0,0,1,1-1.8,2.2,2.2,0,0,1,2.2,0,4.4,4.4,0,0,1,1.9,1.9A3.9,3.9,0,0,1,76.1,71.1Zm26.5-1.4a6.7,6.7,0,0,1-3.2,5,6.9,6.9,0,0,1-5.5.4,13,13,0,0,1-5.8-3.9l2-3.4A11.3,11.3,0,0,0,93.8,70a3.9,3.9,0,0,0,3.2-.2,3.2,3.2,0,0,0,1.5-2.2,5.9,5.9,0,0,0-.9-3.3,4.9,4.9,0,0,0-2.7-2.2,16.9,16.9,0,0,0-4.4-.7l-2.7-.3a11.3,11.3,0,0,1-2.6-.7,8.8,8.8,0,0,1-2.8-1.6,13,13,0,0,1-2.2-2.9,9.8,9.8,0,0,1-1.5-6.5,5.8,5.8,0,0,1,3.1-4.7,5.5,5.5,0,0,1,4.7-.4,10,10,0,0,1,4.8,3.2l-2.2,3.2c-1.8-1.6-3.4-2.1-4.8-1.2A2.2,2.2,0,0,0,83,51.3a3.6,3.6,0,0,0,.6,2.7,2.1,2.1,0,0,0,.4.6c.2.2.3.4.5.5l.6.3.7.3.7.2h3.3l2.9.4a13,13,0,0,1,2.7.8,7.8,7.8,0,0,1,3,1.8,9.7,9.7,0,0,1,2.5,3.1A11.1,11.1,0,0,1,102.6,69.7Zm8-18.5a1.9,1.9,0,0,1-1.1,1.8,2,2,0,0,1-2.1,0,4.9,4.9,0,0,1-1.9-1.9,4.6,4.6,0,0,1-.7-2.7,1.9,1.9,0,0,1,1-1.8,2,2,0,0,1,2.1,0,4.6,4.6,0,0,1,2,1.9A5.4,5.4,0,0,1,110.6,51.2Zm23.3,3a5.4,5.4,0,0,1-3.5.9,8.8,8.8,0,0,1-3.5-1,19.2,19.2,0,0,1-3.4-2.6,21.7,21.7,0,0,1-3.2-3.6,43.8,43.8,0,0,1-2.8-4.2,45.5,45.5,0,0,1-2.6-5.5,24.2,24.2,0,0,1-1.4-5.6,10.4,10.4,0,0,1,.3-5,6.3,6.3,0,0,1,2.8-3.4,5.7,5.7,0,0,1,4.8-.4,12.4,12.4,0,0,1,4.8,3l-1.8,3.8a10.7,10.7,0,0,0-2.8-1.8,2.6,2.6,0,0,0-2.3.1,3.7,3.7,0,0,0-1.6,3.1,13.5,13.5,0,0,0,.9,4.7,28.5,28.5,0,0,0,2.4,5,22.4,22.4,0,0,0,5.2,6.6c2,1.6,3.6,2,5,1.3s1.6-2.7,1-5.6h4C137.6,49.2,136.8,52.6,133.9,54.2ZM106.5,88.6c-44.7,25.9-87,33.5-96.3,17.4S28.7,57.2,73.5,31.4s87-33.5,96.3-17.4c4.5,7.8.2,19.9-11.9,34.1S127.7,76.4,106.5,88.6Zm-32-55.5c-21,12.1-39.1,26.3-50.9,40.1S8,98.1,12,105s16.1,9.1,33.4,5.9,39.2-11.9,60.1-24,39.1-26.3,50.9-40.1S172,21.9,168,15s-16.1-9.1-33.4-5.9S95.4,21,74.5,33.1Z"/>
    <path d="M50,69.3c-1.3.7-1.7,2.3-1.2,4.7A29.1,29.1,0,0,0,52,81.9a24.7,24.7,0,0,0,5.3,6.8c1.8,1.6,3.4,2,4.7,1.3a3,3,0,0,0,1.3-2.8,13.1,13.1,0,0,0-.8-4.6A41.4,41.4,0,0,0,60,77.3a28.7,28.7,0,0,0-5.3-6.8C52.9,68.9,51.3,68.5,50,69.3Z"/>
  </g>
</svg>
